<svg height="533.333" version="1" viewBox="0 0 400.000000 400.000000" width="533.333"
  xmlns="http://www.w3.org/2000/svg">
  <path
    d="M134 1.4c0 1.8-1.9 3.3-5.2 4.1-2.3.6-2.9.3-3.7-1.6l-1-2.4v2.6c-.1 1.5-1.1 3.4-2.3 4.3l-2.3 1.7 2.5-1.2c1.4-.7 3.9-1.3 5.6-1.4 3-.1 3.1.1 2.2 2.7-1.1 3.2-5.1 4.7-7.9 3-1.3-.9-1.9-.8-2.3.4-.3.9-.6 1.6-.6 1.7 0 .1 1.8.1 4 .1 2.5-.1 4 .3 4 1 0 2.4-3.2 5.6-5.5 5.6-1.3 0-3.1-1-3.9-2.2l-1.6-2.2v2.2c0 1.3-.9 3.3-2 4.5-2.9 3-2.2 6.1 1.3 6.5 1.6.2 3.1 1 3.4 1.8.7 1.8-2.4 5.4-4.6 5.4-1.2 0-1.2.3-.3 1.2 1.7 1.7 1.5 3.1-.9 5.7-1.5 1.5-2.7 2-4.2 1.5-3.3-1-3.9-2.7-1.7-4.5 2.3-2 1.5-3.2-1.1-1.6-3.6 2.3-2.1 7.7 2.2 7.7 3.3 0 3.7 1 1.1 3.3-1.8 1.6-8.2 2.4-8.2 1 0-.3.7-1.5 1.7-2.5.9-1 1.2-1.8.7-1.8-1.6 0-3.4 2.3-3.4 4.2 0 .9-.9 2.2-2 2.8-1.1.6-1.8 1.5-1.5 1.9.2.5-.6 2.9-1.9 5.5L92.3 67h2.6c1.4-.1 5.5-.7 9-1.4 3.5-.8 7-1.2 7.7-.9.8.3 1.7-.2 2-1.2.4-.9 1.7-2 3-2.5 1.5-.6 2.4-1.9 2.6-3.7.2-2.2.9-2.9 3-3.1 2.1-.2 3-1.1 3.8-3.8.6-1.9 1.8-3.4 2.5-3.4.9 0 1.3-1.2 1.2-3.6-.1-2.5.5-4.1 1.8-5.1 1.1-.8 1.9-2.1 1.7-2.9-.4-1.9 3.8-13.4 4.9-13.4.5 0 .9-.7.9-1.6 0-.9 1.5-3 3.3-4.6 2.1-1.9 2.8-3.1 2-3.5-1.9-.7-1.6-4 .5-5.5 1-.7 1.7-2.5 1.7-4.1 0-2.7-.1-2.7-6.2-2.7-4.7 0-6.3.4-6.3 1.4zM122.5 24c.4.6-.1 2.2-.9 3.5-1.8 2.8-5.7 3.3-7.5 1.1-1-1.1-.7-1.9 1-3.5 2.4-2.2 6.4-2.8 7.4-1.1z"/>
  <path
    d="M153.2.8c.5 1.8-3.5 11.2-4.7 11.2-.9 0-1.2.6-.9 1.5.4 1.1-.1 1.5-1.7 1.5-2.3.1-2.4.1-.4 1.6 1.6 1.2 1.8 1.8.7 3.4-.6 1.1-1.2 3-1.2 4.2 0 1.2-1 3.2-2.2 4.5-1.2 1.3-1.6 2.3-.9 2.3.8 0 .7.9-.4 3-.9 1.6-2 3-2.5 3-.6 0-.8 1-.5 2.3.4 1.5-.1 3.2-1.3 4.7-1.1 1.4-2.3 4.4-2.6 6.7-.7 4-.7 4.2 2.1 4.5 1.5.2 2.7.7 2.5 1.3-.2.5.5 1.2 1.5 1.6 1.7.7 1.7.8-.1.8-1.2.1-1.6.6-1.2 1.6.3.8 0 1.5-.5 1.5-.6 0-.9.9-.6 2 .3 1 0 2.1-.7 2.3-.6.2-.9.6-.6.8 1.2 1 17.2 7.1 19.7 7.5 2.8.4 3.5.7 10.6 3.8 2.1.9 4.6 1.6 5.5 1.6 1 0 2.6.6 3.7 1.4 1.1.7 5.6 2.4 9.9 3.6 4.4 1.2 8.7 2.6 9.5 3.1 2.8 1.5 14.3 5.9 23.3 8.9 4.8 1.6 10.5 3.8 12.8 5 2.2 1.1 4.4 1.9 4.9 1.6.4-.3 6.6-1 13.7-1.5 18.9-1.6 21.4-2 20.8-3.5-.6-1.6-5.8-3.9-13.8-6.1-3.9-1.1-6.8-2.6-8.4-4.5-2.1-2.4-2.9-2.7-5.3-2-2.7.8-8.2-.1-10.4-1.8-.5-.4-2-2.6-3.1-4.9-1.9-3.6-2-4.4-.8-5.4s1.8-.8 2.9.7c1.3 1.7 1.4 1.8 1.5.1 0-.9-.5-1.7-1.1-1.7-.6 0-.8-.7-.5-1.7.4-.9.1-2-.5-2.4-1.8-1.1 0-3.1 2.2-2.4 1.4.5 2 .2 1.9-.7-.3-2.1 1.1-5.8 2.2-5.8.6 0 .8-.9.5-1.9-.3-1.1.2-2.9 1-4.1.8-1.2 1.3-3 1-4-.3-1.1.1-2.4.9-3.1.8-.6 1.4-1.9 1.4-2.8 0-.9.7-2.7 1.6-3.9.8-1.2 1.3-3.1.9-4.1-.3-1 .1-2.4 1-3.1.8-.7 1.5-2.3 1.5-3.7 0-1.3.6-3.1 1.4-3.9.8-.7 1.3-2.5 1.2-3.9-.2-1.4 0-2.5.4-2.5 1.1 0 3-4.8 2.5-6.3-.7-1.7-6.2-4-8.1-3.3-.8.3-1.3 1-.9 1.5.3.6-1 1.3-2.9 1.7-5 .9-12.6-2.8-11.9-5.7.3-1.1 1.2-2.3 1.9-2.6 1.9-.7 1.8-2.9-.2-3.7-3.1-1.2-10.1-.6-11.4.9-.7.8-1.6 1.5-2.1 1.5s-.9-.7-.9-1.5c0-1.2-1.4-1.5-6.4-1.5-5.6 0-6.5.3-7.1 2.1-.8 2.4-4.1 2.1-3.9-.3.2-1.6-2-1.7-23.2-1.7-12.9 0-23.3.3-23.2.7zm23.7 4.1c.8 1.4.7 2.2-.3 3-.8.7-1.7 2.7-2 4.5-.4 1.9-1.3 4-2.2 4.7-.8.7-1.3 1.8-1 2.5.3.7-.4 2.4-1.5 3.8s-1.8 2.9-1.6 3.3c.3.5.1 1.8-.4 3-1 2.6-4.1 3-5.9.8-1.4-1.7-.4-5.5 1.4-5.5.8 0 1.1-1 .8-2.8-.2-1.9.4-3.6 2.2-5.7 1.8-2 2.4-3.6 2-5.2-.5-1.7-.2-2.3 1.1-2.3 1.4 0 1.5-.3.6-1.4-1.2-1.4-.2-2.7 2.9-3.9 2.5-.9 2.9-.8 3.9 1.2zm41.1 3c0 1.1-.5 2.3-1.1 2.6-.6.4-.8 1.3-.5 2 .6 1.6-1.3 3.5-3.5 3.5-1.2 0-1.6-.6-1.2-2 .3-1.1.9-2 1.4-2 .5 0 .9-1.1.9-2.4 0-2.2 1-3.3 3.3-3.5.4-.1.7.8.7 1.8zm-17.7 2.6c.4.8.2 1.7-.4 2.1-.7.4-.6 1 .1 1.8.7 1 .5 2-1 3.9-1.1 1.4-1.7 3.2-1.4 4.1.3.9.2 1.6-.2 1.6-.5 0-1.5 1.5-2.2 3.2-2.7 6.6-4.1 7.8-7.1 5.9-1.1-.7-1.1-1.4.2-4.2.9-1.9 2.4-6.1 3.4-9.3 1.1-3.8 2.4-6.1 3.5-6.4 1-.2 1.5-.9 1.2-1.4-.4-.6 0-1.4.7-1.9 2-1.2 2.6-1.1 3.2.6zm30.8 2.1c1.2 1.4 1.1 1.6-.5 1.3-1.1-.2-2.1-1-2.4-1.7-.5-1.7 1.3-1.5 2.9.4zM244 18c0 .5-.4 1.2-1 1.5-.5.3-1 1.5-1 2.6 0 1-.7 1.9-1.5 1.9-1.8 0-2-1.6-.2-2.3.6-.3.2-.6-1-.6-1.7-.1-2.3.5-2.3 1.9 0 1.1.5 1.9 1.1 1.7.6-.1 1.4.4 1.7 1.2.3 1-.1 1.3-1.4.9-2.5-.6-4.7 1.7-3.9 4.2.8 2.6 2.5 2.6 2.5.1 0-1.9 1.7-3.8 2.5-2.9.3.2-.1 1.9-.7 3.6-1 2.6-1.7 3.2-3.8 3-2-.3-2.6.2-2.8 2.2-.2 1.4-1 4-1.8 5.8-1.4 3.1-1.2 5.2.5 5.2.5 0 1.1-1.8 1.5-4 .7-4.7 2.3-5.3 2.4-1 0 1.6-.4 3-.9 3s-.9 1.4-.9 3c0 1.8-.6 3.3-1.5 3.7-2.2.8-3-.4-1.6-2.1.7-.8.8-1.7.3-2-1.3-.8-2.9 1.3-3.7 4.7-1 3.7-3.2 4.7-8 3.3-4.6-1.3-5.7-4-2.6-6.2 1.7-1.2 1.9-1.8.9-3.3-.9-1.5-.8-2.2.5-3.5.8-.9 2.4-1.6 3.4-1.6 1.7-.1 1.7-.1.1-1.4-2.2-1.6-2.3-3.5-.2-4.3 1.3-.5 1.3-.8.2-1.5-.9-.7-.7-.8 1-.5 2.6.6 2.8 0 .5-2.5-.9-1.1-1.1-1.8-.5-1.8.7 0 1.2-1 1.2-2.1 0-1.7.4-2 2.3-1.6 2 .5 2 .5.5-.7-1-.7-1.8-1.8-1.8-2.5 0-.6.8-1.1 1.8-1.2 1 0 1.2-.3.5-.6-2.2-.8-1.4-2.3 1.2-2.3 1.4 0 2.5-.4 2.5-.9 0-1.4 8.3-2.8 11.3-1.8 1.5.5 2.7 1.3 2.7 1.7zm-30 3.4c0 .7-.9 2.5-2 3.8-1 1.4-1.7 2.8-1.4 3.1 1.2 1.2-.8 4.7-2.8 4.7-1.2 0-1.8-.5-1.6-1.3.3-.6 1.3-3.6 2.2-6.5 1.3-3.9 2.3-5.2 3.7-5.2 1 0 1.9.6 1.9 1.4zm32 8.1c0 .8-.4 1.5-1 1.5-.5 0-1-.7-1-1.5s.5-1.5 1-1.5c.6 0 1 .7 1 1.5zm-81.7 5.9c.6 1.5-1.2 2.6-4.4 2.6-2.6 0-2.4-1.9.4-3 3.1-1.2 3.4-1.2 4 .4zm43.7 1c0 2.5-1.2 4.6-2.6 4.6-1.4 0-2-4.1-.7-5.3 1.2-1.2 3.3-.7 3.3.7zm29 .5c0 .6-.4 1.3-1 1.6-.5.3-1-.1-1-.9 0-.9.5-1.6 1-1.6.6 0 1 .4 1 .9zm7-.1c0 1.3-1.2 2.2-2.2 1.6-1-.6-.1-2.4 1.3-2.4.5 0 .9.4.9.8zM189.2 39c1.4 0 .2 5.7-1.8 8.8-.9 1.3-2.2 2.1-2.9 1.8-.9-.3-1.2 0-.8 1 .6 1.6-.5 1.8-2.6.5-.9-.6-1-1.1-.2-1.5.6-.4 1.1-1.8 1.1-3.1s.7-3 1.5-3.8c.8-.8 1.2-1.7.9-2-1.1-1 .8-2.8 2.3-2.3.8.3 1.9.6 2.5.6zm-27.1 2.2c.2 2.5-.3 5.3-1.3 6.5-.5.7-.7 1.6-.4 2.1.6 1-4.6 5.2-6.4 5.2-.6 0-.8.4-.5 1 .3.5-.1 1-1 1-2.1 0-1.7-2.6 1.6-10.8.5-1.2 1.4-2.2 2.1-2.2.7 0 1.9-.9 2.6-2 1.4-2.2 3.1-2.6 3.3-.8zm42.9 3.2c0 2.7-1.7 4.3-3 3-1-1.1.6-5.4 2-5.4.5 0 1 1.1 1 2.4zm36.2.1c0 .5-.5 1.1-1.1 1.3-.6.2-1.1-.4-1.1-1.3s.5-1.5 1.1-1.3c.6.2 1.1.8 1.1 1.3zM174.5 51c.4.6-.7 1-2.5 1s-2.9-.4-2.5-1c.3-.6 1.5-1 2.5-1s2.2.4 2.5 1zm64.5 1c0 .5-.4 1-1 1-.5 0-1-.5-1-1 0-.6.5-1 1-1 .6 0 1 .4 1 1zm-37 .4c0 1.7-2.9 6.6-3.4 5.8-.3-.6-.1-1.4.5-1.8.8-.4.7-.9-.2-1.5-1.2-.8-1.1-1.1.1-1.9 1.5-1 3-1.3 3-.6zM184.2 57c-.4 3.4-2.4 7.9-3.8 8.4-.7.3-2.2.2-3.4-.1-1.6-.4-1.8-.8-.8-1.4.9-.6.9-.9.1-.9-.9 0-.9-.8-.1-3 1.9-5.6 8.6-8.1 8-3zm51.8 3c0 .5-.4 1-1 1-.5 0-1-.5-1-1 0-.6.5-1 1-1 .6 0 1 .4 1 1zm-12.4 2.2c-.4 1.3-1 4-1.3 6.1-.3 2.1-1 4-1.4 4.3-.5.3-.9 1.3-.9 2.2.1 1.4.2 1.4 1.2-.3 1.5-2.6 3.1-3.6 4.1-2.6 1.7 1.7-.5 5.3-4 6.7-3.1 1.3-4 1.3-8.3-.1-5.2-1.7-7.8-3.9-6-5 .5-.3 1-1.9 1-3.6 0-1.7.7-3.3 1.9-4.1 1-.6 1.7-1.7 1.4-2.4-.3-.7 1.3-1.5 4.4-2.2 7.9-1.6 8.6-1.5 7.9 1zm-26.2 4.6c-.4.9-.6 2-.6 2.4.3 1.1-2.6 1-3.3-.1-.3-.5-.1-1.2.5-1.6.6-.4.8-1 .5-1.5-.3-.5.3-1.3 1.2-1.9 2.1-1.1 2.9.1 1.7 2.7zm30.1-2.8c.4.6.3 2.4 0 4.1-.6 2.8-.9 3-2.2 1.6-1-1-1.3-2.2-.8-3.4.5-1 .7-2.1.7-2.6-.3-1.1 1.6-.9 2.3.3zm-38.7.9c1 .6.8 1-1 1.4-4.1 1.2-5.5.8-3.4-.8 2.3-1.7 2.6-1.8 4.4-.6zM360 1c0 .5 1.3 1 2.9 1 1.7 0 3.3-.5 3.6-1 .4-.6-.8-1-2.9-1-2 0-3.6.4-3.6 1zM368 2c0 1.5.7 2 2.5 2 1.4 0 2.5.4 2.5 1 0 .5-.7 1-1.5 1-.7 0-1.8.7-2.3 1.6-.6 1.1-1.7 1.5-3.1 1.1-2.9-.7-2.6.7.4 2.1 1.4.6 2.5 2 2.4 2.9 0 1.1-.3 1.3-.6.5-.6-1.4-4.3-1.6-4.3-.2 0 .5.5 1 1.1 1 .5 0 .7.5.4 1-.4.7.7.8 3.3.4 2.5-.4 4.2-.2 4.6.5.5.7-.3 1.1-2.1 1.1l-2.8.1 2.4 1.9c2.3 2 2.3 2 .2 2-1.4 0-2-.4-1.5-1.1.4-.7.1-1-.7-.7-1.7.6-2.4 5.7-1 7.1.6.6 1.1 1.9 1.1 2.9s.4 1.8.8 1.8c.5 0 1.7.7 2.8 1.5 1.8 1.5 1.7 1.6-1.6.9l-3.5-.6 2.7 2.5c1.5 1.4 2.4 2.7 2.1 3.1-.3.3.8.4 2.6.1 1.7-.2 2.9 0 2.6.5-.3.4.2 2.4 1 4.4 1 2.4 2.2 3.6 3.5 3.6 1.3 0 2 .7 2 2s.5 1.7 1.4 1.4c1.4-.5 4.3 3.2 3.8 4.8-.1.5.5.8 1.4.8.9 0 1.2-.5.8-1.2-.4-.7-.3-.8.5-.4.6.4.9 1.1.6 1.6-.3.4-.1 1.9.4 3.2.8 1.8 1 1.9 1 .5.1-1 .5-1.6 1.1-1.2.5.3.7 1.2.3 2-.3.8 0 1.5.6 1.5s1.1.9 1.1 2 .5 2 1 2c.6 0 1 .4 1 .9 0 1.2-7.1.2-8.9-1.2-.9-.8-6.5-1.1-16.4-.9-9.1.1-16.6-.3-18.9-1-3.1-.9-5-.9-9 .1-5.5 1.5-9.8 3.4-10.7 4.9-.3.6-2.6 1.3-5.1 1.7-8.3 1.2-11.6 2.5-17.6 7-3.2 2.4-6.3 4.5-6.8 4.5-2 0-19.6 16.3-19.6 18.2 0 .4-1.8 3.4-3.9 6.8-3.5 5.3-4.7 8.8-6.6 18-.3 1.4-1 4.5-1.6 7-1.3 5.3-1.3 6.1-.9 16.4.3 8.3 2.4 14.4 5.8 16.8 2.1 1.4 2.5 4.6.9 6.6-.6.7-1.1 4.6-1.1 8.5 0 6.6.2 7.6 2.7 10.2 3 3.3 4.8 9.8 3.5 13.3-.4 1.3-.6 2.7-.3 3.2.3.4.6 2.9.7 5.6.1 3.7.7 5.3 2.6 7.1 2.6 2.4 3.5 2.6 8.9 2.3 4.6-.2 7.1 1.5 7.9 5.5.4 2.1 1 3.2 1.7 2.8.6-.4.7-.1.1.8-.9 1.6-.6 5.9.6 7.4 1.4 1.9.5 31.7-1.2 35.3-.8 1.8-1.8 2.9-2.2 2.5-.4-.4-.4 0-.1.9.5 1.1-.5 2.1-3.4 3.4-4.7 2.2-5.3 3.7-1.3 3.2 2.1-.2 2.6.1 2.4 1.4-.2 1 .2 1.8.8 1.8.6 0 .8.5.5 1.1-.5.7-1.4.3-2.6-1-2.1-2.2-3.9-2.7-3.9-1.1 0 .5.6 1 1.3 1 .8 0 1.9 1.2 2.6 2.6.8 1.7 1.7 2.4 2.7 2 .9-.3 2.7-.3 4 0 2 .5 2.2.9 1.3 2-.6.8-.8 1.4-.4 1.4s.2.7-.5 1.5c-.9 1.1-.9 1.5-.1 1.5.6 0 1.6-1 2.1-2.3l.9-2.2.7 2.2c.3 1.3 1 2.3 1.5 2.3s.9.7.9 1.5c0 1.7 1.7 2 2.2.4.2-.7 1.2-.7 3.1 0 1.7.7 2.7.7 2.7.1s.4-1 .9-1c.4 0 .7 1.2.5 2.7l-.4 2.8 1.5-3 1.4-3 .1 2.7c0 1.5-.7 3.4-1.6 4.3-.9.9-1.4 1.9-1.1 2.2.3.3 1.3-.2 2.3-1.1 1.2-1.3 1.9-1.4 3-.5 1.1.9 1.4.7 1.5-1.2.1-1.8.3-1.9.6-.6.2 1 1.2 1.6 2 1.5.9-.2 1.8.3 2 .9.3.7-.2 1.3-1 1.3-1.6 0-3.2 4.4-2.2 6.1.4.5-.1 1.2-.9 1.5-.9.3-1.6 1.4-1.6 2.4s-.6 2.1-1.2 2.4c-1 .5-1 .7 0 1.2 2 .9 1.4 2.4-1 2.4l-2.3.1 2.1 1.2c1.2.7 1.9 1.8 1.7 2.4-.3.7 0 1.3.6 1.3.5 0 1.2-1.2 1.4-2.8.4-2.6.4-2.6.6.5 0 1.7-.5 3.4-1.1 3.7-1 .5-1 .7 0 1.2.6.3 1.2 1.3 1.2 2.1s.6 1.3 1.3 1c1-.4 1.3.6 1.3 3.5-.1 2.5.4 4.3 1.2 4.5 1 .4 1.1-.2.6-2.3-.7-2.7-.6-2.8.9-1.3 1.2 1.2 1.4 2.4.8 4.5-.5 1.6-1.3 2.8-2 2.7-.6-.2-1.1.1-1.1.5 0 2.1 4 4 10.5 5.2 3.9.7 7.5 1.5 8 1.9 1.1.6 1.7.8 4 1 .8 0 1.5.6 1.5 1.2s-.9.8-2.2.3c-2-.6-2.1-.5-.9 1 1.2 1.4 1.1 1.6-.5 1.7-1.1 0-1.4.3-.6.6 2.2.9.2 2.3-3.2 2.3-3.7 0-4.8 3-1.2 3.1 1.9 0 1.8.1-.4 1-1.4.6-3.8.9-5.5.9-1.6-.1-3.2-.1-3.5 0-1.1.6-6.7.8-30.5 1.4-36.5.8-72.3 2.5-77.5 3.6-2.5.5-8 1.4-12.4 2.1-10.7 1.5-17.6 3.3-27.3 7.1-7 2.8-8.3 3.6-8.3 5.5 0 2.5 1.1 2.8 3.9 1.3 1-.5 7-2.3 13.2-4 23.3-6.4 40.7-8.1 84.1-8.1 18 0 33.1.2 33.5.4.5.3 4.6.8 9.2 1.2 4.7.4 9.4 1 10.5 1.5 1.2.4 2.6.8 3.1.9.6.1 1 1.8 1 3.8 0 2.8-.4 3.7-2 3.9-2 .3-16.4.8-53.5 1.9-27.3.8-43.9 2.1-53 4-4.1.9-8.8 1.9-10.5 2.2-1.6.3-5.5 1.1-8.5 1.9-5.1 1.3-3.8 1.3 16 .9 11.8-.2 27.8-.9 35.5-1.4 13.3-1 36.5-.7 43 .5 1.7.3 22.9.8 47.3 1.1l44.2.5V0h-16c-15.3 0-16 .1-16 2zm6 6.4c0 .3-.4.8-1 1.1-.5.3-1 .1-1-.4 0-.6.5-1.1 1-1.1.6 0 1 .2 1 .4zm-3 16.2c0 .2-.7.4-1.5.4s-1.5-.4-1.5-1c0-.5.7-.7 1.5-.4.8.4 1.5.8 1.5 1zm1.7 6c-.3.3-1.2.4-1.9.1-.8-.3-.5-.6.6-.6 1.1-.1 1.7.2 1.3.5zm8.7 9.9c-.7 1.6-2.4 2.1-2.4.6 0-.8.7-1.3 2.7-2 .1-.1 0 .6-.3 1.4zM352 106c0 .5-.7 1-1.6 1-.8 0-1.2-.5-.9-1 .3-.6 1-1 1.6-1 .5 0 .9.4.9 1zm21 6c0 .5-.2 1-.4 1-.3 0-.8-.5-1.1-1-.3-.6-.1-1 .4-1 .6 0 1.1.4 1.1 1zm-47.6 8.1c-.5.9.1 1 2 .5 2.5-.6 2.8-.2 2.5 2.9 0 .5 1.7 2.8 6.1 8.2.6.7 1 1.7 1 2.3 0 .9 4.2 7.3 6 9 .3.3 1.6 2.2 3 4.2 1.9 2.8 3 3.6 4.4 3.2 1.3-.4 1.6-.2 1.1.6-.6.9-.3.9 1.4.1 1.6-.9 2.1-.9 2.1.1 0 .9.3.9.9-.2 1.1-1.6.4-3.3-.9-2.5-1.2.8-2-3.4-1-5.8.8-2.1.9-2.1 1 .3 0 1.9.2 2.2 1 1 .7-1.2 1.1-1 1.8 1 .5 1.4.7 3.1.5 3.7-.3.7-.1 1.3.5 1.3.9 0 3.9 8.8 3.4 10.2-.1.5.2.8.7.8.6 0 .8.9.6 2-.2 1.1 0 2 .5 2 .4 0 1.1.7 1.4 1.6.6 1.4 0 1.6-3.6 1.1-8-1.1-11.3-1.8-14.3-3-3.8-1.5-22.7-1.6-23.2-.1-.3 1-8.7.4-14.9-1.1-2.2-.5-4.2-6.3-2.6-7.4.5-.3.8-1.3.7-2.2-.2-.9 1-2.8 2.6-4.3s2.9-3.5 3-4.4c0-1.4.2-1.3.9.3.8 1.8.9 1.7.9-.8.1-1.5.5-2.7 1-2.7s1.3-2.6 1.7-5.8c.4-3.1 1.1-6 1.6-6.3.5-.3 1.1-2.1 1.3-3.9.3-1.8 1.2-4.1 2.1-5.1 1.9-2.1 4-2.6 2.8-.8zM353 140c0 .5-.2 1-.4 1-.3 0-.8-.5-1.1-1-.3-.6-.1-1 .4-1 .6 0 1.1.4 1.1 1zm-52.5 27.6c1.7 4.1 1.3 5.4-1.8 5.4-4.2 0-6.5-1.2-7.1-3.5-1-3.8.3-5.5 4-5.5 2.9 0 3.6.5 4.9 3.6zm7.2 4c-.3.3-1.2.4-1.9.1-.8-.3-.5-.6.6-.6 1.1-.1 1.7.2 1.3.5zm-5.2 7.4c.3.5.1 1-.4 1-.6 0-1.1-.5-1.1-1 0-.6.2-1 .4-1 .3 0 .8.4 1.1 1zm1.6 4.1c.4.8 1.6 4.2 2.5 7.7 2.4 8.6 5.6 11.9 13.8 14.3 3.6 1.1 6.6 2.4 6.6 2.8 0 1.4 18.1 3 22 2 .8-.2 1.8-1.1 2.2-1.9.5-1.2.7-1.2.7.2.1 2.2.8 2.2 4.1.2 2.2-1.3 2.2-1.4.3-.9-1.2.3-2.4.1-2.8-.5-.3-.5-.1-1 .5-1s1.4-.8 1.7-1.8c.4-.9 1.6-2.6 2.7-3.7 1.2-1.1 3.6-3.9 5.4-6.2 2-2.5 4.5-4.4 6.2-4.8 3.4-.7 10 2 10 4.1 0 .8.4 1.4.9 1.4s1.1 1.6 1.3 3.5c.2 1.9 0 3.5-.4 3.5-1.1 0-.7 8 .4 8.6.5.3.6.9.3 1.4-.3.5-.1 1.1.5 1.5.5.3 1 1.5 1 2.6s-.4 1.8-.9 1.4c-.5-.3-1.3 0-1.6.6-.4.5-1.3.8-2.1.5-.8-.3-1.4 0-1.4.6s-.3.9-.6.5c-.3-.3-1.8-.1-3.3.4-1.4.6-4.6 1.2-7.1 1.4-2.5.1-6 1-7.8 2-1.8.9-3.4 1.5-3.6 1.4-3.6-5-4.2-6.6-3.5-9.4 1.1-3.7-.2-5-3.2-3.5-2.3 1.2-8.8 7.9-8.9 9 0 .4-1.6 1.2-3.5 1.9-1.9.6-3.4 1.8-3.2 2.4.1.7-.8 1.2-2 1.2-1.1 0-2.4.3-2.8.7-.4.4-1.3.4-2.1.1-.9-.3-1.4.2-1.4 1.3 0 1.7-.1 1.6-1.5-.2s-1.4-1.8-1.5.6c-.1 1.4-.4 1.9-.7 1.2-.2-.6-1.3-1.2-2.4-1.2-1.1 0-1.6-.5-1.3-1.4.3-.8-.3-1.6-1.5-1.9-1.2-.3-2.4-1.3-2.7-2.4-.3-1-.9-2.5-1.2-3.3-.3-.8-.7-2.2-.7-3-.1-.8-.3-2.1-.4-2.8 0-.6-1.2-1.2-2.5-1.2-1.4 0-2.8-.5-3.1-1-.4-.6-1-.8-1.5-.5-.5.3-1.5-.7-2.2-2.2-.8-1.6-2.1-3.8-2.9-5.1-1.2-2-1.2-2.4.1-3.2 1.1-.7 1.6-3.4 1.8-10.5.4-9.2 1.3-11.3 3.3-7.4zm49.5 46.4c2 2.5 4.2 4.5 5 4.5 2 0 2.7 1.9 1.4 3.5-1 1.2-.9 1.5.4 1.5 1 0 1.6-.8 1.6-2.3 0-1.6.3-1.8.9-.9.4.8 1.2 1.3 1.7 1.3 1.7-.1 5.4 3.9 5.3 5.6 0 1-.3 1.3-.5.8-.2-.6-3.5-.9-8.2-.7-19.1.8-19.9.7-20.7-1.9-.4-1.2-1.2-1.8-2.1-1.5-.8.3-1.4-.1-1.4-1 0-.8-.4-1.2-1-.9-.6.4-1-.5-1-1.9s.4-2.6 1-2.6c.5 0 .7.7.3 1.6-.5 1.4-.3 1.5 1.7.4 1.8-1 2-1.4.9-2.1-1.1-.7-.7-1.5 1.9-3.9 1.7-1.7 3.2-2.8 3.2-2.4 0 .5.5.3 1.2-.4 2.2-2.2 4.6-1.2 8.4 3.3zM347 251c.8 1.1 2 2 2.7 2 .7 0 1.3.5 1.3 1.1 0 .6-.7.8-1.6.5-.9-.3-2-.6-2.5-.6-.6 0-.7-.5-.4-1 .9-1.4-.8-1.3-2.3.2-1.6 1.6-1.6-.4.1-2.1 1-1.1 1-1.3 0-.7-.7.4-1.3.2-1.3-.3 0-1.8 2.5-1.2 4 .9zm8 4c0 .5-.2 1-.4 1-.3 0-.8-.5-1.1-1-.3-.6-.1-1 .4-1 .6 0 1.1.4 1.1 1zm-7 10c4 2.2 3.8 2.4-.8 1.1-2.6-.8-3.2-.7-3.2.5 0 1.1.6 1.3 2 .9 1.1-.4 2-.2 2 .4 0 .6-.8 1.1-1.7 1.1-1.5 0-1.5.1-.1 1.2 2.1 1.7 3 7.8 1.1 7.8-.7 0-1.2-.3-1.2-.8.1-.4.1-1.5 0-2.4-.1-2.4-2.9-1.2-3.4 1.5l-.4 2.2-.8-2.3c-.9-2.6-2.5-2.9-2.6-.5 0 1-.5.5-1.1-1.2-.6-1.7-1.5-3.6-2.1-4.3-.7-.9-.3-1.2 1.7-1.2 1.7 0 2.6-.5 2.6-1.6 0-1.4.3-1.4 1.5-.4 1.2 1 1.5.9 1.6-.6.1-1.1.1-2.2 0-2.7-.2-1.1 1.1-.8 4.9 1.3zm3 5c0 .5-.2 1-.4 1-.3 0-.8-.5-1.1-1-.3-.6-.1-1 .4-1 .6 0 1.1.4 1.1 1zm-24.3 34.2c-.3.8-.6.5-.6-.6-.1-1.1.2-1.7.5-1.3.3.3.4 1.2.1 1.9zm3 18c-.3.7-.5.2-.5-1.2s.2-1.9.5-1.3c.2.7.2 1.9 0 2.5zm9.1 21.3c-.6 1.4-1.3 2.4-1.4 2.2-.6-.6.9-4.7 1.7-4.7.5 0 .3 1.1-.3 2.5zm2.6 3c.3.8.1 1.5-.4 1.5-.6 0-1-.7-1-1.5s.2-1.5.4-1.5.6.7 1 1.5zm-1.4 4.1c0 .2-.9.4-2 .4s-2-.4-2-.9.9-.7 2-.4c1.1.3 2 .7 2 .9zm6 35.3c0 1.7-1.8 2.1-2.4.6-.3-.9 0-1.5.9-1.5.8 0 1.5.4 1.5.9z"/>
  <path
    d="M338 237c0 .5.5 1 1.1 1 .5 0 .7-.5.4-1-.3-.6-.8-1-1.1-1-.2 0-.4.4-.4 1zM364 24.4c0 1.4.5 2.6 1 2.6.6 0 1-.9 1-1.9 0-1.1-.4-2.3-1-2.6-.6-.4-1 .5-1 1.9zM361.1 24.6c0 1.1.3 1.4.6.6.3-.7.2-1.6-.1-1.9-.3-.4-.6.2-.5 1.3zM109.7 32.8c-1 1-1.7 2.6-1.7 3.6 0 1.8 2.7 3.3 3.8 2.1.4-.4.1-1-.5-1.2-.7-.3-1.3-1.3-1.3-2.3 0-1 .6-2 1.3-2.3.6-.2.9-.7.6-1.1-.3-.3-1.3.2-2.2 1.2zM364.8 32.7c.6.2 1.8.2 2.5 0 .6-.3.1-.5-1.3-.5-1.4 0-1.9.2-1.2.5zM93 80c-7.5 1.1-7.4.9-13.7 14-2.6 5.2-5 9.7-5.3 10-.4.3-1.1 1.6-1.5 3-.4 1.4-1 2.7-1.4 3-.3.3-1.7 2.9-3.1 5.7-1.4 2.9-2.8 5.3-3.2 5.3-.5 0-.8.6-.8 1.3 0 .7-1.4 3.9-3.2 7.2-7.5 14.4-8.8 16.9-8.8 18.2 0 .7-.3 1.3-.8 1.3-.4 0-1.3 1.5-2.1 3.2-.8 1.8-1.9 4-2.6 4.8-.7.8-3.6 6-6.6 11.5-2.9 5.5-6.8 12.7-8.6 16-1.8 3.3-3.7 7-4.2 8.2-.5 1.1-1.5 2.4-2 2.8-1.8 1.1-1.2 2.3 1.7 3.3l2.7 1-3.2.1c-2.1.1-3.3.6-3.3 1.4 0 .8-.9 2.2-2 3.2s-1.7 2.2-1.4 2.6c.6 1 12.4 1.2 14.8.3 2.4-.9 1.9-3.2-.6-3.7-1.4-.3-.9-.5 1.5-.6 3-.1 3.7.2 3.7 1.8 0 1.1.4 2.2.8 2.5 1.3.8 5.3-.5 4.6-1.5-.3-.5.2-.6 1-.3 1 .4 1.6.1 1.6-.8s-1.5-2-3.2-2.5c-2.7-.8-2-.9 3.5-.5 5.7.4 6.7.2 6.7-1.2 0-.9.5-1.6 1.1-1.6.6 0 .9-.9.6-2-.3-1.1-.1-2 .4-2s.9-.5.9-1c0-.6.9-2.9 1.9-5.1 1.1-2.2 2.3-5.4 2.7-7.2.3-1.8 1.2-3.5 1.8-4 .8-.5.7-.9-.2-1.6-1.1-.6-.9-1 .7-1.4 1.2-.3 2.1-1.2 2.1-2s1.4-4.4 3.2-7.8c1.7-3.5 3.3-7.5 3.4-8.8.2-1.3.7-2.7 1.2-3 .5-.3 1.3-2.5 1.7-4.8.4-2.4 1.2-4.6 1.7-4.9.7-.5.9.3.4 2.2-.5 2.1-.4 2.5.4 1.4.5-.8 1-2.9 1-4.5 0-2.3.3-2.7 1-1.5.8 1.3 1 1.3 1-.2 0-.9.5-2.9 1.2-4.5.6-1.5 1.2-3.2 1.2-3.6.1-.4.6-1.1 1.3-1.5.8-.5.9-1.3.3-2.2-.6-.8-1-2-1-2.5 0-.6.4-.4.9.4 1 1.6 3.1.6 3.1-1.4 0-.7-.7-1.5-1.5-1.9-.8-.3-1.5-1.1-1.5-1.8 0-.9.3-.9 1.2 0 .7.7 1.5 1.2 1.9 1.2 1.2 0 1.7-3.9.5-4.4-.6-.2-.2-.5 1-.5 1.7-.1 2.5-1.3 4-5.9 1-3.1 2.2-5.7 2.6-5.7.3 0 1.5-1.2 2.7-2.6 1.6-2 1.7-2.9.8-3.8-.9-1-.8-1.6.8-2.7 1.3-1 1.9-2.4 1.7-4.1-.3-1.6 0-2.3.7-1.9.6.4 1.1.2 1.1-.4 0-.6.5-.8 1.2-.4.7.5.9.2.6-.7-.8-2 .7-5.4 2.3-5.4.8 0 1.5-1 1.7-2.3.3-1.6-.2-2.2-1.5-2.2-1 0-3.4-.2-5.3-.4-1.9-.3-6.4 0-10 .4zm6 22c0 .5-.4 1-1 1-.5 0-1-.5-1-1 0-.6.5-1 1-1 .6 0 1 .4 1 1zm-63.9 98c1 0 1.9.4 1.9.8 0 1.2-5.9.2-6.7-1.1-.4-.7 0-.8 1.1-.4 1 .4 2.6.7 3.7.7zm-6.8 2.7c-.7.2-2.1.2-3 0-1-.3-.4-.5 1.2-.5 1.7 0 2.4.2 1.8.5zM124 83.5c-1.4.8-2.1 1.4-1.5 1.5.5 0 .4.5-.3 1.2-.8.8-.9 1.5-.1 2.5.9 1 .8 1.3-.4 1.3-1.3 0-1.5.8-1.1 3.9.5 3.6.4 3.9-1.5 3.4-1.7-.4-2.1-.1-2.1 2 0 1.4-.7 2.8-1.6 3.1-1.2.4-1.5 1.5-1.2 3.7.4 2.3 0 3.3-1.5 4.1-1.6.8-1.7 1.2-.6 1.9s1 .9-.3.9c-1.1 0-1.8.8-1.8 1.9 0 1.1-.5 2.1-1.1 2.3-.5.2-1.2 1.6-1.3 3.2-.2 1.5-.9 3.2-1.6 3.6-.7.4-.9 1.3-.6 1.9.4.6.1 1.1-.8 1.1s-2 1.6-2.7 4.2c-.6 2.3-2.2 5.6-3.6 7.2-1.4 1.7-2.2 3.7-2 4.8.3 1 0 1.8-.8 1.8-.7 0-1.5.7-1.8 1.4-.4 1.1-.1 1.3 1.1.9.9-.4.2.8-1.7 2.5-2.1 2.1-3.2 3.9-2.8 5.1.2 1-.3 2.2-1.3 2.9-2.6 1.6-5.5 8.3-4 9.2.9.6.7 1-.7 1.4-1.1.3-2.6 2.2-3.3 4.1-.8 1.9-1.7 3.5-2.2 3.5-.4 0-.8.9-.8 1.9 0 1-.7 2.1-1.5 2.5-.8.3-1.5 1.2-1.5 1.9 0 .8-.9 2.4-2 3.7-1.1 1.3-2 3.1-2 4.2 0 1-.4 1.8-.9 1.8s-1.8 1.5-3 3.2c-1.1 1.8-2.8 4.3-3.6 5.5-1.6 2.1-1.5 2.2 1.2 3.7l2.8 1.5-3 .2c-2.4.1-2.5.3-.7.6 1.2.2 2.2.9 2.2 1.6 0 .8.3.8 1.2-.1.8-.8 1.5-.8 2.4-.1.8.7 1.7.5 2.7-.6 1.7-1.7 5.7-2.1 5.7-.5 0 .5.6.8 1.3.6.6-.1.9-.1.5.1-.5.3-.8 1.2-.8 2 0 .9.3 1.3.7 1 .3-.4 1.1-.1 1.7.7.7.8 6.1 2 14.1 3 7.2.8 19.8 2.5 28 3.6 24.6 3.3 43.3 5.9 55 7.5 6.1.8 19.6 2.6 30.2 4 10.6 1.3 22.2 3 25.9 3.6 8.8 1.5 9.2 1 8.2-10.7-3.2-40.7-5.6-77.9-6-94.8-.1-5.4-.7-10.5-1.3-11.3-.6-.8-4-2.3-7.5-3.3-3.6-1-11.7-3.6-18-5.8C170.5 93.6 134 82 130.5 82c-2.2.1-5.1.7-6.5 1.5z"/>
  <path
    d="M48.5 205c.4.6 1.1.8 1.6.5 1.4-.9 1.1-1.5-.7-1.5-.8 0-1.2.5-.9 1zM61.5 209c-.3.5-.1 1 .4 1 .6 0 1.1-.5 1.1-1 0-.6-.2-1-.4-1-.3 0-.8.4-1.1 1zM11 223c0 1.7 2.7 3 6.3 3 1.2 0 1.7-.8 1.7-2.5 0-2.3-.4-2.5-4-2.3-3.1.1-4 .5-4 1.8zM23 224c0 2.5.4 2.8 4 3.2 2.9.2 4 0 4.4-1.2.3-1.2.4-1.1.5.2.1 1.1.9 1.8 2 1.8s7.9.7 15.3 1.6c7.3.9 15.9 1.6 19 1.5 3.1-.1 5.9.3 6.2.8.3.5 2.8 1.2 5.5 1.6 4.9.7 5 .8 5.3 4.3.3 3.5.5 3.8 5.3 4.9 2.8.7 13.6 2 24 2.9 10.5.9 20.4 1.8 22 1.9 1.7.2 4.8.6 7 .9 21 2.9 32 4 53.5 5.1 9.2.5 28.4 2.2 39.3 3.4 3.8.4 7 .3 7.3-.1.3-.5 1-.6 1.5-.3 1.5 1 1-3.2-.8-7.5-1.6-3.5-2.2-4-5.8-4.4-12.9-1.6-36.8-4.8-41.5-5.6-6.7-1.1-48.1-6.5-57.5-7.4-2.2-.3-9.4-1.2-16-2-44-5.9-47-6.2-48.3-5.3-1 .8-1.6.7-2.3-.4-.6-1-.9-1-.9-.2 0 1.5-2.7 1.8-3.2.4-.6-1.5-10.7-2.1-12-.7-1 1.1-1.5 1-2.6-.1-1.2-1.1-1.7-1.1-3-.1-.8.7-1.6 1.1-1.8.8-.2-.3-1.2.3-2.4 1.2-1.5 1.4-2 1.4-2 .4 0-3.5-9.2-5.7-11-2.7-.8 1.4-.9 1.3-1-.4 0-1.7-.2-1.7-1-.5-.5.8-1 1-1 .4s-1.7-1.1-4-1.1c-3.7 0-4 .2-4 2.7zM290 287.5c-1 1.3-.9 1.5.8 1.5 1.1 0 2.8.7 3.6 1.6 1.9 1.8 2 1.5.6-2-1.1-2.9-3.1-3.3-5-1.1zM287 290.2c0 .9.5 2 1 2.3 1.3.8 1.3-.5 0-2.5-.8-1.3-1-1.3-1 .2zM30 309.2c-1.2 1.9-1.8 4.2-1.5 5.5.5 2 .1 2.2-6.4 2.5-3.9.2-8.7 0-10.8-.3-2-.4-5.4-.4-7.5-.1l-3.8.5v13.4c0 12.2.1 13.3 1.6 11.9.8-.9 1.4-2.8 1.2-4.3-.2-1.4.2-2.8.9-3 .7-.3 1 .4.6 1.9-.4 2.2-.4 2.2 1.1.5.8-1.1 1.2-2.6.8-3.5-.5-1.4-.3-1.5.9-.5 1.8 1.5 5.9.6 7.6-1.5.9-1.1 1.6-1.2 2.6-.4.7.6 2.4.8 3.8.5 2-.5 2.2-.4 1.3.8-.9 1.1-.9 1.7.1 2.6 1.1 1 1.5 1 1.8 0 .3-.7.3.5 0 2.6-.5 3.2-.3 3.6 1.1 3.1 1.1-.4 1.6-.1 1.6 1.1 0 .9.6 1.5 1.3 1.2.6-.2 1.1-1.2 1.1-2.1-.1-.9.4-1.6 1.1-1.6.7 0 1.1-1.2 1-3-.1-2.1.4-3.1 1.7-3.6 1-.3 1.8-1.2 1.8-2.1 0-1.2.7-1.4 3.3-.8 1.7.4 4.3.9 5.7 1 1.4.1 2.6.7 2.6 1.3.3 2.5.5 2.7 1.4 1.2.8-1.2 1-1.1 1 .7 0 3.2 1.5 3.6 5.2 1.3 1.8-1.1 4.3-2 5.6-2 1.3 0 2.1-.4 1.8-.9-.3-.5.1-1.1.9-1.5.8-.3 1.5 0 1.5.6s.3.8.6.5c.4-.4.2-1.2-.4-2-.8-1-.6-1.3.9-1.4 1.3-.1 1.9.5 1.9 1.8 0 1 .5 1.9 1 1.9.6 0 1-.7 1-1.6 0-.8.4-1.3 1-.9.5.3.7 1.2.4 1.9-.3.9.3 1.7 1.5 2.1 1.2.3 2.1 1.3 2.1 2.1s1 1.4 2.5 1.4c1.4 0 3.6.9 4.8 2 1.2 1.2 2.3 1.6 2.5 1 .2-.5 2.6-1 5.2-1 2.7 0 7.3-.5 10.2-1.1 3.3-.8 5.3-.8 5.5-.2.5 1.3 5.3.4 5.3-1 0-.8.3-.8 1.1 0 .7.7 2.2.8 4.5.1 1.9-.5 3.8-.6 4.3-.3s1.3 0 1.7-.6c.4-.8.9-.7 1.5.2.6 1 .9 1.1.9.1 0-.6.7-1.2 1.5-1.2s1.5.4 1.5.9 1.9.3 4.3-.4c4.4-1.3 14.3-2.6 23.7-3.1 3-.2 5.7-.4 6-.5.3-.1 1-.3 1.5-.4.6-.2 2.1-.6 3.4-1l2.4-.8-2.4-1.9c-1.3-1.1-1.9-1.7-1.2-1.4.6.4 1.4.2 1.8-.4.3-.5-.2-1-1.2-1s-2.6-.6-3.5-1.4c-1.5-1.1-1.5-1.5-.2-4 1.8-3.7 1.9-3.6-1.6-3.6-2.8 0-3-.2-2.5-2.8.3-1.7 0-1.2-1 1.3-.9 2.2-1.4 5-1.2 6.2.5 2.5-1.4 3.3-8.6 3.3-4.4 0-4.8-.2-4.2-2 .4-1.4.2-2-.8-2s-1.3-.7-1-2c.4-1.4 0-2-1.1-2-1.5 0-1.5-.3-.2-2.8.8-1.6 1.1-3.3.8-3.9-1.1-1.7-7.3-2.1-10.1-.7-1.4.7-2.8 1-3.1.5-.9-1.3-3.9-2.1-5.6-1.4-1.3.5-1.3.8-.2 1.5.9.7.7.8-.7.3-5.4-2-6.5-1.8-6.5.9v3.3c0 .5.6.8 1.3.8.6 0 1.1-.6 1-1.3-.2-.8 1.1-1.2 4.2-1.2 3.3 0 4.5.4 4.5 1.5 0 2.2-3.2 3.4-7.9 2.9-4-.5-4.2-.4-3.9 1.8.3 2.1-.1 2.3-4.6 2.6-2.7.2-5.4-.2-5.9-.7-.8-.8-.4-1.1 1.4-1.2 1.3-.1 2.7-.1 3.2 0 .4 0 .7-.3.7-.9 0-.5-.4-1.1-1-1.1-.5-.1-1.4-.3-2-.4-.5-.1-2-.3-3.2-.4-1.8-.2-1.9-.4-.7-.9 3-1.4 6.9-5 6.9-6.6 0-1.9-3.1-2.1-4.8-.4-.8.8-1.2.8-1.2.1 0-.6-1.4-.9-3.2-.8-1.8.2-5.2.3-7.6.4-4.3.1-4.5.3-5.6 5.3L85 317H35.8l.6-4.1c1.1-7.1-2.9-9.3-6.4-3.7zm101.3 5.3c.7 1.7-.8 2.9-2.8 2.1-1.7-.6-.9-3.6 1-3.6.7 0 1.5.7 1.8 1.5zm-34.5 1.2c.5 1.8-1.9 1.6-4.3-.3-1.9-1.5-1.9-1.5.9-1.2 1.6.2 3.1.9 3.4 1.5zm34.1 5.4c-1.5.9-3.2.2-2.4-1.1.3-.5 1.3-.6 2.1-.3 1.2.4 1.3.8.3 1.4zm-37.5 1.5c.9.3 1.6 1 1.6 1.4 0 1.1-6 1.8-6.6.8-.3-.4.2-.8 1.1-.8.9 0 1.3-.5 1-1-.7-1.1.6-1.3 2.9-.4zm19 1.2c.2.4-.4.9-1.5.9-1 .1-1.9-.2-1.9-.8 0-1.1 2.7-1.2 3.4-.1zm-4.7.8c-.3.3-1.2.4-1.9.1-.8-.3-.5-.6.6-.6 1.1-.1 1.7.2 1.3.5zM10.5 332c.3.5-.1 1-1 1s-1.3-.5-1-1c.3-.6.8-1 1-1 .2 0 .7.4 1 1zm48 0c.3.5-.1 1-1 1s-1.3-.5-1-1c.3-.6.8-1 1-1 .2 0 .7.4 1 1z"/>
  <path
    d="M147 311c0 1.6.5 1.8 3.7 1.4 4.5-.5 5.6-1.4 1.9-1.4-1.6 0-2.5-.4-2.1-1 .3-.6-.3-1-1.4-1-1.4 0-2.1.6-2.1 2zM162.6 310.5c-.3.9 0 1.5.9 1.5 1.6 0 2-1.6.6-2.4-.5-.3-1.1.1-1.5.9zM325 316c0 .5.5 1 1 1 .6 0 1-.5 1-1 0-.6-.4-1-1-1-.5 0-1 .4-1 1zM207.5 317.4c-2.2.8-9.3 2.5-15 3.6-3.3.6-6.9 1.4-7.9 1.7-1.5.4-1.8.1-1.3-1.1.6-1.5.3-1.5-2.1.2-1.5 1-3.4 2.1-4.4 2.5-1.9.7-13.2 15.6-12.4 16.4.2.3 2-.7 3.9-2.1 1.8-1.4 3.7-2.4 4-2.1.4.3.5.2.2-.2-1.1-1.4 13-9.5 21.4-12.3 9.9-3.3 19.1-3.9 35-2 8.2.9 10.2.8 8.8-.7-1.9-1.8-26.9-5.1-30.2-3.9zM144.8 318.7c.6.2 1.8.2 2.5 0 .6-.3.1-.5-1.3-.5-1.4 0-1.9.2-1.2.5zM151.6 318.8c.7.4 1.4 1.6 1.7 2.7.4 1.5.5 1.4.6-.8.1-2-.4-2.7-1.6-2.7-1.2 0-1.4.3-.7.8zM192.1 336c-4.1 1.2-9.4 3.4-11.8 5.1-2.4 1.6-4.8 2.9-5.4 2.9-.5 0-.9.3-.9.7 0 .5-1.7 1.9-3.7 3.3-5.9 4-7.5 5.9-6.8 8.1.7 2 .8 2 3.3-.4 4.3-4.1 20.3-13.6 25.7-15.4 4-1.3 11.1-1.8 37-2.2 29.7-.6 35.8-1.3 21-2.5-3.3-.3-16.1-.8-28.5-1.1-20.7-.5-23.1-.4-29.9 1.5zM43 336c0 .5.5 1 1.1 1 .5 0 .7-.5.4-1-.3-.6-.8-1-1.1-1-.2 0-.4.4-.4 1zM8.5 339.1c-1.2 1.9.5 2.3 2.2.6 1.6-1.6 1.6-1.7.1-1.7-.9 0-2 .5-2.3 1.1zM55.7 339.7c-.4.3-.7 1.1-.7 1.7 0 .6.5.5 1.2-.2.6-.6.9-1.4.7-1.7-.3-.3-.9-.2-1.2.2zM43.7 348.6c-.2.2-14.8 1.3-19.2 1.5-.5 0-3.9 0-7.3-.1-6.9-.2-9.3.9-6.7 3 1.4 1.2 1.8 1.1 2.5 0 .7-1.2 1-1.1 1.6.3.3.9.9 1.5 1.4 1.2.4-.2 1.6.2 2.6 1 1.4 1 1.5 1.4.5 1.5-.8 0-1.1.3-.8.7.4.3 2-.8 3.6-2.6l3-3.3 2.4 2.6c2.4 2.5 4 2.6 3.1.1-.3-.7.1-1.5.9-1.8 1-.4 1.3.2 1 2.1l-.4 2.7 1.6-2.6c1.3-1.8 2.6-2.5 5.1-2.6 1.9-.1 3.4.4 3.5 1 0 .7.4.3.9-.8.7-1.7.9-1.6 1 1 .1 2.6.3 2.7 1 1 .5-1.1.9-1.6.9-1 .1.5.5.4 1-.4.8-1.2 1.2-1.2 2.5-.2 1.2 1 1.6 1 1.6.2s.8-1 1.9-.6c1.1.3 2.2.2 2.5-.3.3-.5 3.4-1 6.8-1 11.8-.1 11.6-.1 9.3-1.5-1.3-.8-6.5-1.2-14.8-1.2-7.1 0-12.9.1-13 .1zM73.6 349.5c.7 1.8 3 2 3.7.2.4-.9.8-.9 1.5.2.5.7 1.5 1 2.2.6 1.8-1.1-.8-2.5-4.7-2.5-2.5 0-3.1.4-2.7 1.5zM83 349c0 .5.6 1 1.4 1 .8 0 1.8-.5 2.1-1 .3-.6-.3-1-1.4-1-1.2 0-2.1.4-2.1 1zM114.7 351.1c-.6 2.3.1 4.9 1.3 4.9.8 0 2-3.4 2-5.8 0-2-2.7-1.3-3.3.9z"/>
  <path
    d="M.1 375.2V400h2.5c2.6 0 5.4-2 5.4-3.9 0-.6-.4-1.1-1-1.1-1.4 0-1.2-1.7.6-5.6.9-1.9 1.4-3.7 1.1-4.1-.4-.3-.2-1.4.3-2.3.8-1.5 1.6-1.7 4.7-1 3.2.8 4 .6 5.9-1.5 1.2-1.3 2-2.6 1.7-2.9-.3-.3.1-1.2 1-2 .8-.8 1.7-1.3 1.9-1 .3.2 1.8 0 3.3-.6 2.5-1 2.7-.9 2.2 1s-.2 2.1 2.6 1.8c2.5-.2 3.1-.7 2.9-2.1-.3-1.7.2-1.8 4.4-1.2 2.6.3 5.1.8 5.6 1.1.4.3.8-.6.8-2s.5-2.8 1.1-3.2c.6-.3.8-1.7.4-3.1-.5-2-.3-2.4.9-2 .9.4 1.6.1 1.6-.5 0-1.3-16.3-.2-16.8 1.1-.1.4-2.4.4-5 0s-5.4-.3-6.2.1c-.8.4-3.7.6-6.5.5-2.7-.1-5.6.3-6.4.9-1.2.9-1.3.6-.6-1.9.4-1.7.8-4.2.8-5.7 0-1.7.6-2.9 1.6-3.1 1-.3.8-.5-.7-.6-1.4-.1-2.6-1-3.2-2.5-.7-1.9-1.6-2.4-3.9-2.4l-3.1.1.1 24.9zM35 367c0 .5-.5 1-1.1 1-.5 0-.7-.5-.4-1 .3-.6.8-1 1.1-1 .2 0 .4.4.4 1zM279.6 350.7c-.4.4-12.7 1-40.6 1.8-11.8.4-26.3 1.3-32.1 2-9.2 1.2-11.9 2-22 6.8-15.9 7.6-15.2 7.5-20.4 3.5-2.4-1.8-4.8-4.3-5.4-5.5-.5-1.2-2.2-2.9-3.6-3.9-2-1.3-2.8-1.4-4-.4-.8.7-1.5 1.9-1.5 2.6 0 .8-.4 1.4-.8 1.4-1 0-1.3 2.7-.6 4.9.3 1 .8 1.1 1.8.2 1.1-.9 1.5-.7 1.9 1 .3 1.1 1 1.8 1.6 1.5.5-.3 2.4.7 4.2 2.4 1.9 1.6 3.7 3 4.1 3 .4 0 2.9 1.3 5.6 2.9 2.7 1.6 5.9 3.2 7.2 3.6 1.9.6 2.2.4 1.6-1-2.2-5.7-2-5.9 5.1-9.4 3.7-1.8 7.6-3.7 8.5-4.2 2.8-1.4 16.9-4.6 25.3-5.8 4.4-.6 25.8-1.3 47.6-1.6 21.7-.3 41.8-.5 44.5-.6l4.9-.1-9-2.9c-7.2-2.4-10.5-2.9-16.3-2.7-4 .1-7.4.4-7.6.5zM56 353.1c0 .5 1.9.9 4.2.9 4.9 0 4.7-.5-.4-1.3-2.1-.3-3.8-.2-3.8.4z"/>
  <path
    d="M14.5 358c-.3.5-.1 1 .4 1 .6 0 1.1-.5 1.1-1 0-.6-.2-1-.4-1-.3 0-.8.4-1.1 1zM115 362.9c-.7 1.4-.7 2.2 0 2.6.6.4.8 1 .5 1.5-.3.4.2 1.1 1 1.4 1.3.4 1.4.2.5-1.4-.9-1.7-.7-2.2.9-2.8 2.1-.7 2.1-.7.1-2-1.6-1-2.1-.9-3 .7zM59 367.1c0 .5.5.7 1 .4.6-.3 1-.8 1-1.1 0-.2-.4-.4-1-.4-.5 0-1 .5-1 1.1zM126 372c-.8.5-2.7 1-4.1 1-2.3 0-3 .9-5.2 5.9l-2.5 5.9-7.9 1.8c-6.7 1.6-7.8 2.2-8.1 4.2-.2 1.2-1 3.4-1.7 4.9-.8 1.5-1.2 3-.9 3.5.3.4 12.5.8 27.1.8h26.5l-1.9-3.3c-2.6-4.4-5.6-4.7-7.3-.8-1 2.6-1.4 2.8-2.6 1.6-2-2-5.7-3-6.2-1.6-.2.6-1.2 1.1-2.2 1.1-1.3 0-1.7-.7-1.6-3.3.1-1.8.8-4.2 1.6-5.3 1.6-2.3 5.9-4.9 6.7-4.1 1 1.1 6.5-1.7 7.3-3.7.8-2 .9-2 1 .4.1 3.4 1.5 5.4 3.3 4.7.9-.3 3.1.8 5.3 2.9 2.2 1.9 7.5 5.2 12 7.4 7.5 3.8 8.6 4.1 15 3.8l6.9-.3-4.4-2.3c-2.4-1.3-6.1-3-8.3-3.8-6.1-2.1-17.2-9.8-20.9-14.4-2.6-3.2-3.9-4-5.7-3.7-1.2.2-2.5.1-2.7-.3-.4-.6-5.5-2.1-8.7-2.4-.3-.1-1-.4-1.4-.9-1-1-6.6-.9-8.4.3zM73.2 397.7c-1.7 1.2-2.5 1.3-3.7.3-1.2-1-2.8-1-9.2 0-.2 0-.3.4-.3 1s4.6 1 11.7 1c11.3 0 11.6-.1 9.9-1.9-2-2.2-5.3-2.4-8.4-.4zM86.3 397c-3.9 1.6-2.6 3 2.7 3 5.3 0 5.8-.3 3.6-2.6-1.6-1.6-3.1-1.7-6.3-.4zM10 398.4c0 1.3 1.3 1.6 7.7 1.6 8 0 9.5-1 2.1-1.5-2.4-.2-5.5-.6-7-1-2.2-.6-2.8-.4-2.8.9zM50.5 397.7c-6 .9-5 2.3 1.6 2.3 5.8-.1 6.2-.2 4.5-1.5-1.1-.8-2.2-1.4-2.5-1.4-.3.1-1.9.4-3.6.6z"/>
</svg>
